<svg xmlns="http://www.w3.org/2000/svg" width="200" height="300" viewBox="0 0 200 300">
  <defs>
    <linearGradient id="bg" x1="0" y1="1" x2="0" y2="0">
      <stop offset="0%" stop-color="#0a0310"/>
      <stop offset="55%" stop-color="#241030"/>
      <stop offset="100%" stop-color="#3a1240"/>
    </linearGradient>
    <radialGradient id="glow-center" cx="50%" cy="52%" r="42%">
      <stop offset="0%" stop-color="#c97b8a" stop-opacity="0.45"/>
      <stop offset="100%" stop-color="#c97b8a" stop-opacity="0"/>
    </radialGradient>
    <radialGradient id="glow-top" cx="50%" cy="5%" r="55%">
      <stop offset="0%" stop-color="#7aab8e" stop-opacity="0.2"/>
      <stop offset="100%" stop-color="#7aab8e" stop-opacity="0"/>
    </radialGradient>
    <linearGradient id="frame-grad" x1="0" y1="0" x2="1" y2="1">
      <stop offset="0%" stop-color="#c97b8a" stop-opacity="0.9"/>
      <stop offset="50%" stop-color="#d4a574" stop-opacity="0.6"/>
      <stop offset="100%" stop-color="#7aab8e" stop-opacity="0.7"/>
    </linearGradient>
    <linearGradient id="petal-grad" x1="0" y1="0" x2="0" y2="1">
      <stop offset="0%" stop-color="#f5e6d3" stop-opacity="0.5"/>
      <stop offset="100%" stop-color="#c97b8a" stop-opacity="0.25"/>
    </linearGradient>
    <linearGradient id="petal-stroke" x1="0" y1="0" x2="0" y2="1">
      <stop offset="0%" stop-color="#f5e6d3" stop-opacity="0.7"/>
      <stop offset="100%" stop-color="#c97b8a" stop-opacity="0.4"/>
    </linearGradient>
  </defs>

  <!-- Фон -->
  <rect width="200" height="300" fill="url(#bg)"/>
  <rect width="200" height="300" fill="url(#glow-center)"/>
  <rect width="200" height="300" fill="url(#glow-top)"/>

  <!-- Диагональные нити -->
  <line x1="0" y1="0" x2="200" y2="300" stroke="#c97b8a" stroke-width="0.5" stroke-opacity="0.18"/>
  <line x1="200" y1="0" x2="0" y2="300" stroke="#7aab8e" stroke-width="0.5" stroke-opacity="0.18"/>
  <line x1="100" y1="0" x2="100" y2="300" stroke="#f5e6d3" stroke-width="0.3" stroke-opacity="0.08"/>
  <line x1="0" y1="150" x2="200" y2="150" stroke="#f5e6d3" stroke-width="0.3" stroke-opacity="0.08"/>

  <!-- Внешняя рамка -->
  <rect x="10" y="10" width="180" height="280" rx="5" fill="none" stroke="url(#frame-grad)" stroke-width="1.4"/>
  <!-- Внутренняя рамка -->
  <rect x="16" y="16" width="168" height="268" rx="3.5" fill="none" stroke="url(#frame-grad)" stroke-width="0.6" stroke-opacity="0.6"/>

  <!-- Угловые акценты — ярче -->
  <line x1="10" y1="26" x2="10" y2="10" stroke="#c97b8a" stroke-width="2" stroke-opacity="0.9" stroke-linecap="round"/>
  <line x1="10" y1="10" x2="26" y2="10" stroke="#c97b8a" stroke-width="2" stroke-opacity="0.9" stroke-linecap="round"/>
  <line x1="174" y1="10" x2="190" y2="10" stroke="#c97b8a" stroke-width="2" stroke-opacity="0.9" stroke-linecap="round"/>
  <line x1="190" y1="10" x2="190" y2="26" stroke="#c97b8a" stroke-width="2" stroke-opacity="0.9" stroke-linecap="round"/>
  <line x1="10" y1="274" x2="10" y2="290" stroke="#7aab8e" stroke-width="2" stroke-opacity="0.8" stroke-linecap="round"/>
  <line x1="10" y1="290" x2="26" y2="290" stroke="#7aab8e" stroke-width="2" stroke-opacity="0.8" stroke-linecap="round"/>
  <line x1="174" y1="290" x2="190" y2="290" stroke="#7aab8e" stroke-width="2" stroke-opacity="0.8" stroke-linecap="round"/>
  <line x1="190" y1="274" x2="190" y2="290" stroke="#7aab8e" stroke-width="2" stroke-opacity="0.8" stroke-linecap="round"/>

  <!-- Цветок сакуры — 5 лепестков, более заметных -->
  <ellipse cx="100" cy="131" rx="8" ry="15" fill="url(#petal-grad)" stroke="url(#petal-stroke)" stroke-width="0.7" transform="rotate(0 100 150)"/>
  <ellipse cx="100" cy="131" rx="8" ry="15" fill="url(#petal-grad)" stroke="url(#petal-stroke)" stroke-width="0.7" transform="rotate(72 100 150)"/>
  <ellipse cx="100" cy="131" rx="8" ry="15" fill="url(#petal-grad)" stroke="url(#petal-stroke)" stroke-width="0.7" transform="rotate(144 100 150)"/>
  <ellipse cx="100" cy="131" rx="8" ry="15" fill="url(#petal-grad)" stroke="url(#petal-stroke)" stroke-width="0.7" transform="rotate(216 100 150)"/>
  <ellipse cx="100" cy="131" rx="8" ry="15" fill="url(#petal-grad)" stroke="url(#petal-stroke)" stroke-width="0.7" transform="rotate(288 100 150)"/>
  <!-- Сердцевина -->
  <circle cx="100" cy="150" r="6.5" fill="#c97b8a" fill-opacity="0.6"/>
  <circle cx="100" cy="150" r="3.5" fill="#f5e6d3" fill-opacity="0.75"/>
  <circle cx="100" cy="150" r="1.5" fill="#fff" fill-opacity="0.6"/>

  <!-- Декоративные точки вокруг цветка — ярче -->
  <circle cx="100" cy="115" r="1.5" fill="#c97b8a" fill-opacity="0.6"/>
  <circle cx="114" cy="120" r="1.2" fill="#c97b8a" fill-opacity="0.45"/>
  <circle cx="86"  cy="120" r="1.2" fill="#c97b8a" fill-opacity="0.45"/>
  <circle cx="116" cy="180" r="1.2" fill="#7aab8e" fill-opacity="0.5"/>
  <circle cx="84"  cy="180" r="1.2" fill="#7aab8e" fill-opacity="0.5"/>
  <circle cx="100" cy="185" r="1.5" fill="#7aab8e" fill-opacity="0.55"/>

  <!-- Разделители — ярче -->
  <line x1="46" y1="200" x2="154" y2="200" stroke="#c97b8a" stroke-width="0.8" stroke-opacity="0.55"/>
  <line x1="64" y1="205" x2="136" y2="205" stroke="#c97b8a" stroke-width="0.4" stroke-opacity="0.3"/>

  <!-- Текст — заметнее -->
  <text x="100" y="224"
        font-family="Georgia, 'Times New Roman', serif"
        font-size="10"
        font-weight="400"
        fill="#f5e6d3"
        fill-opacity="0.65"
        text-anchor="middle"
        letter-spacing="4">НЕТ ПОСТЕРА</text>

  <!-- Звёздочки в углах — ярче -->
  <text x="30" y="28" font-family="serif" font-size="9" fill="#c97b8a" fill-opacity="0.55" text-anchor="middle">✦</text>
  <text x="170" y="28" font-family="serif" font-size="9" fill="#c97b8a" fill-opacity="0.55" text-anchor="middle">✦</text>
  <text x="30" y="284" font-family="serif" font-size="9" fill="#7aab8e" fill-opacity="0.5" text-anchor="middle">✦</text>
  <text x="170" y="284" font-family="serif" font-size="9" fill="#7aab8e" fill-opacity="0.5" text-anchor="middle">✦</text>
</svg>
